<?xml version="1.0" encoding="UTF-8"?>
<svg id="Layer_2" data-name="Layer 2" xmlns="http://www.w3.org/2000/svg" viewBox="0 0 31.73 42.89">
  <defs>
    <style>
      .cls-1 {
        fill: #fff;
      }

      .cls-1, .cls-2, .cls-3 {
        stroke: #fff;
        stroke-linecap: round;
        stroke-linejoin: round;
        stroke-width: .99px;
      }

      .cls-2 {
        fill: #57763c;
      }

      .cls-3 {
        fill: #f3bc30;
      }
    </style>
  </defs>
  <g id="Layer_3" data-name="Layer 3">
    <g>
      <path class="cls-2" d="M8,42.39v-7.51c0-4.14-3.36-7.5-7.51-7.5.71,0,1.41.03,2.1.08,9.54.75,15.75,6.62,18.72,14.93h-13.31Z"/>
      <path class="cls-1" d="M31.23,15.5v6.11c-6.21-5.59-14.06-9.44-22.88-10.88v-2.74C8.35,3.85,11.71.49,15.86.49s7.51,3.36,7.51,7.5v7.51h7.86Z"/>
      <path class="cls-3" d="M31.23,21.61v5.77c-2.08,0-3.95.84-5.31,2.2-1.36,1.36-2.2,3.23-2.2,5.3v7.51h-2.41c-2.97-8.31-9.18-14.18-18.72-14.93-.69-.05-1.39-.08-2.1-.08v-11.88h7.86v-4.77c8.82,1.44,16.67,5.29,22.88,10.88Z"/>
    </g>
  </g>
</svg>