<?xml version="1.0" encoding="UTF-8"?>
<svg id="Layer_2" data-name="Layer 2" xmlns="http://www.w3.org/2000/svg" viewBox="0 0 31.72 42.89">
  <defs>
    <style>
      .cls-1 {
        fill: #fff;
      }

      .cls-1, .cls-2, .cls-3 {
        stroke: #fff;
        stroke-linecap: round;
        stroke-linejoin: round;
        stroke-width: .99px;
      }

      .cls-2 {
        fill: #57763c;
      }

      .cls-3 {
        fill: #f3bc30;
      }
    </style>
  </defs>
  <g id="Layer_3" data-name="Layer 3">
    <g>
      <path class="cls-2" d="M8,28.22v14.17h-.01v-7.5c0-4.15-3.36-7.51-7.5-7.51v-11.88h5.46c1.31,3.67,1.98,7.82,2.04,12.21.01.17.01.34.01.51Z"/>
      <path class="cls-1" d="M31.22,15.5v11.88c-.2,0-.39.01-.59.03-.12-4.16-.74-8.15-1.83-11.91h2.42Z"/>
      <path class="cls-3" d="M30.63,27.41c-1.84.14-3.49.94-4.71,2.17-1.36,1.36-2.2,3.23-2.2,5.31v7.5h-15.72v-14.17c0-.17,0-.34-.01-.51-.06-4.39-.73-8.54-2.04-12.21h2.4v-7.51c0-2.07.84-3.94,2.2-5.3S13.78.49,15.86.49c4.14,0,7.5,3.36,7.5,7.5v7.51h5.44c1.09,3.76,1.71,7.75,1.83,11.91Z"/>
    </g>
  </g>
</svg>