<?xml version="1.0" encoding="UTF-8"?>
<svg id="Layer_2" data-name="Layer 2" xmlns="http://www.w3.org/2000/svg" viewBox="0 0 31.72 42.9">
  <defs>
    <style>
      .cls-1 {
        fill: #fff;
      }

      .cls-1, .cls-2 {
        stroke: #fff;
        stroke-linecap: round;
        stroke-linejoin: round;
        stroke-width: .99px;
      }

      .cls-2 {
        fill: #f7d83e;
      }
    </style>
  </defs>
  <g id="Layer_3" data-name="Layer 3">
    <g>
      <path class="cls-2" d="M30.99,27.29c-.15.04-.29.08-.43.12.22-.02.44-.03.66-.03v-.15c-.08.02-.15.04-.23.06Z"/>
      <path class="cls-1" d="M.49,15.5v11.88c2.07,0,3.95.85,5.31,2.2,1.35,1.36,2.19,3.23,2.19,5.31v7.51s15.73,0,15.73,0v-7.51c0-2.78,1.5-5.2,3.74-6.49-1.15.43-2.15.89-2.87,1.37-5.83-7.78-8.15-17.45-8.15-27.93,0-.44.01-.88.01-1.32-.2-.02-.39-.03-.59-.03-4.15,0-7.51,3.36-7.51,7.51v7.5H.49Z"/>
      <path class="cls-2" d="M16.44,1.84c0,10.48,2.32,20.15,8.15,27.93.72-.48,1.72-.94,2.87-1.37.92-.55,1.98-.89,3.1-.99.14-.04.28-.08.43-.12.08-.02.15-.04.23-.06v-11.73s-7.86,0-7.86,0v-7.5c0-3.95-3.05-7.19-6.91-7.48,0,.44-.01.88-.01,1.32Z"/>
    </g>
  </g>
</svg>