<?xml version="1.0" encoding="UTF-8"?>
<svg id="Layer_2" data-name="Layer 2" xmlns="http://www.w3.org/2000/svg" viewBox="0 0 31.72 42.89">
  <defs>
    <style>
      .cls-1 {
        fill: #57763c;
        stroke: #fff;
        stroke-linecap: round;
        stroke-linejoin: round;
        stroke-width: .99px;
      }
    </style>
  </defs>
  <g id="Layer_1-2" data-name="Layer 1">
    <path class="cls-1" d="M31.23,15.5v11.88c-.51,0-1.01.05-1.49.15-.16.03-.32.07-.48.11-.21.06-.41.12-.61.2-.24.09-.46.18-.68.28-.33.16-.64.34-.94.54-.4.27-.77.58-1.11.92-.1.09-.17.17-.25.26-.16.18-.31.36-.46.56-.44.58-.79,1.22-1.04,1.91-.04.1-.07.2-.1.3-.06.21-.12.42-.17.63-.03.13-.06.26-.08.4-.02.1-.03.2-.04.3-.04.31-.06.62-.06.94v7.5H8v-7.5c0-.26-.01-.52-.04-.77-.02-.25-.06-.5-.11-.74-.16-.76-.42-1.47-.78-2.12-.05-.09-.1-.17-.15-.26-.09-.15-.18-.29-.28-.42-.04-.06-.08-.11-.12-.17h0s-.06-.09-.1-.13c-.11-.15-.24-.29-.36-.43h0c-.06-.07-.12-.13-.19-.2-.02-.02-.03-.04-.06-.06-.51-.51-1.09-.95-1.73-1.29-.26-.15-.54-.28-.82-.39h0c-.85-.33-1.78-.52-2.75-.52v-11.88h7.86v-7.52c0-.12,0-.25.01-.38,0-.11.01-.22.02-.34,0-.07.02-.13.02-.2.01-.08.02-.15.03-.22.01-.1.03-.19.05-.29,0-.03,0-.06.01-.08.05-.24.11-.48.19-.71h0c.03-.12.07-.22.11-.33.03-.1.08-.2.12-.3.01-.02.02-.04.03-.06.06-.15.12-.29.2-.43.01-.03.03-.06.04-.09.08-.15.16-.3.25-.45.02-.04.05-.08.07-.12.07-.12.15-.23.23-.34s.16-.22.25-.33c.09-.11.18-.21.27-.32.01-.01.02-.03.03-.04.08-.09.17-.17.25-.26.25-.25.53-.49.82-.71.1-.07.19-.15.29-.21.1-.07.19-.13.29-.19.11-.07.21-.13.33-.19.11-.06.21-.12.33-.17.11-.05.22-.1.33-.15.19-.08.37-.15.57-.21.74-.24,1.53-.38,2.36-.38.39,0,.77.03,1.14.08.12.02.25.04.37.07.12.03.24.05.36.08.12.03.24.06.36.1.04,0,.08.02.12.04.15.05.3.1.44.16.15.06.29.12.43.19.23.11.46.22.67.36.11.06.21.13.31.2.07.05.15.1.22.16.04.03.1.06.14.1.07.06.15.11.21.17.19.15.37.31.53.48.08.08.17.17.25.26.16.18.31.37.46.56.06.08.12.16.17.24.06.08.11.16.16.25.09.14.17.28.25.43.03.06.06.11.08.16.08.15.15.3.21.46.06.12.11.25.15.38.04.11.08.23.12.35.04.12.08.26.11.39.03.1.05.2.07.3,0,.01,0,.03.01.04.04.23.08.47.1.7,0,.01,0,.02,0,.03,0,.06.01.12.02.19,0,.05,0,.1,0,.15.01.12.02.26.02.39v7.54h7.86Z"/>
  </g>
</svg>