<?xml version="1.0" encoding="UTF-8"?>
<svg id="Layer_2" data-name="Layer 2" xmlns="http://www.w3.org/2000/svg" viewBox="0 0 31.73 42.89">
  <defs>
    <style>
      .cls-1 {
        fill: #fff;
      }

      .cls-1, .cls-2 {
        stroke: #fff;
        stroke-linecap: round;
        stroke-linejoin: round;
        stroke-width: .99px;
      }

      .cls-2 {
        fill: #57763c;
      }
    </style>
  </defs>
  <g id="Layer_2-2" data-name="Layer 2">
    <path class="cls-1" d="M31.23,15.5v11.88c-.51,0-1.01.05-1.49.15-.16.03-.32.07-.48.11-.21.06-.41.13-.61.2-.24.09-.46.18-.68.28-.33.16-.64.34-.94.54-.4.27-.77.58-1.11.92-.09.09-.17.18-.25.26-.16.18-.31.36-.46.56-.43.58-.78,1.22-1.04,1.91-.03.1-.07.2-.1.3-.06.21-.11.42-.16.63-.03.14-.06.27-.08.4-.02.1-.04.2-.05.3-.04.31-.05.63-.05.95v7.5h-15.73v-7.5c0-.26-.01-.52-.04-.77-.02-.25-.06-.5-.11-.74-.16-.76-.43-1.48-.79-2.13-.05-.09-.1-.17-.15-.26-.09-.14-.18-.28-.28-.42-.04-.05-.08-.11-.12-.17-.03-.04-.06-.09-.1-.13-.11-.15-.23-.29-.36-.43-.06-.07-.12-.13-.19-.2-.02-.02-.03-.04-.06-.06-.51-.51-1.09-.95-1.73-1.29-.27-.15-.54-.28-.82-.39h-.01c-.11-.04-.23-.09-.35-.12-.75-.26-1.55-.4-2.4-.4v-11.88h7.87v-7.51c0-.13,0-.26.01-.38,0-.11.01-.23.02-.34.01-.07.02-.13.02-.2.01-.08.03-.15.04-.23.01-.09.02-.19.05-.28,0-.03,0-.06.01-.08.05-.24.11-.48.18-.71v-.02c.04-.1.07-.21.11-.31.03-.1.08-.2.12-.3.01-.03.02-.04.03-.07.05-.14.12-.28.19-.42.02-.03.03-.07.05-.09.08-.15.16-.31.25-.45.02-.05.05-.09.07-.13.08-.11.16-.23.24-.34.07-.11.16-.22.25-.33s.18-.21.27-.32c0,0,.02-.03.03-.04.09-.09.17-.18.25-.26.26-.25.53-.49.82-.71.1-.07.19-.14.29-.21.1-.06.19-.12.29-.19.11-.06.22-.13.33-.18.11-.06.21-.12.33-.17.1-.05.22-.1.33-.15.18-.08.37-.15.57-.21.73-.24,1.52-.38,2.35-.38.39,0,.77.03,1.14.09.13.02.25.04.37.06.12.03.24.06.36.09.13.03.24.06.36.1.04.01.08.02.12.04.15.05.3.1.44.16.15.05.29.11.43.19.23.1.46.22.67.36.11.06.21.13.31.19.07.05.15.11.22.16.04.03.09.06.14.1.07.06.15.12.21.18.19.14.37.31.54.48.08.08.17.17.24.26.17.18.32.36.47.56.06.07.11.15.16.23.07.08.12.16.17.25.09.14.17.28.25.43.03.05.06.1.08.16.08.15.16.3.22.46.05.12.11.25.15.38.05.11.08.23.12.35.04.12.08.25.1.38.03.1.06.2.08.31,0,.01,0,.02,0,.04.04.23.08.47.1.7.01.02.01.03.01.04,0,.06.01.12.01.18,0,.05,0,.1,0,.15.01.12.02.26.02.39v7.54h7.86Z"/>
    <path class="cls-2" d="M8,42.39v-7.5c0-.26-.01-.52-.04-.77-.02-.25-.06-.5-.11-.74-.16-.76-.43-1.48-.79-2.13-.05-.09-.1-.17-.15-.26-.09-.14-.18-.28-.28-.42-.04-.05-.08-.11-.12-.17-.03-.04-.06-.09-.1-.13-.11-.15-.23-.29-.36-.43-.06-.07-.12-.13-.19-.2-.02-.02-.03-.04-.06-.06-.51-.51-1.09-.95-1.73-1.29-.27-.15-.54-.28-.82-.39h-.01c-.11-.04-.23-.09-.35-.12,8.62.82,14.98,6.14,18.05,14.61h-12.94Z"/>
  </g>
</svg>