<?xml version="1.0" encoding="UTF-8"?>
<svg id="Layer_2" data-name="Layer 2" xmlns="http://www.w3.org/2000/svg" viewBox="0 0 31.72 42.89">
  <defs>
    <style>
      .cls-1 {
        fill: #fff;
      }

      .cls-1, .cls-2 {
        stroke: #fff;
        stroke-linecap: round;
        stroke-linejoin: round;
        stroke-width: .99px;
      }

      .cls-2 {
        fill: #7c1316;
      }
    </style>
  </defs>
  <g id="Layer_2-2" data-name="Layer 2">
    <g>
      <path class="cls-1" d="M8.36,15.5v-7.5c0-4.15,3.36-7.51,7.51-7.51s7.51,3.36,7.51,7.51v7.5s7.86,0,7.86,0v11.88c-4.14,0-7.5,3.36-7.5,7.5v7.51H8v-7.51c0-2.07-.84-3.95-2.2-5.31s-3.23-2.2-5.31-2.2v-11.88h7.86Z"/>
      <path class="cls-2" d="M8,15.51l.04-8.28c.39-3.78,3.94-6.74,7.82-6.74l1.2.1h.01c.2.03.39.07.58.12l1.13.37c.45.19.87.42,1.27.69.2.13.39.28.58.43.19.16.36.32.54.49.13.13.25.26.37.39.12.13.23.27.34.42.07.1.14.2.21.3.13.2.26.41.38.62.06.12.12.24.18.36.03.06.06.12.08.19.03.06.05.11.07.17.04.08.07.16.1.24.05.12.08.23.12.35.05.13.08.27.12.41,0,.02,0,.04.01.05.02.09.05.18.06.27.01.05.02.09.03.14.04.19.07.39.09.59,0,.04.01.08.01.12.01.11.02.21.02.32,0,.13.01.26.01.38h0v7.51s7.86,0,7.86,0v11.88c-4.14,0-7.5,3.36-7.5,7.5v7.51h-.22s-15.5,0-15.5,0V15.51Z"/>
    </g>
  </g>
</svg>