<?xml version="1.0" encoding="UTF-8"?>
<svg id="Layer_2" data-name="Layer 2" xmlns="http://www.w3.org/2000/svg" viewBox="0 0 31.72 42.89">
  <defs>
    <style>
      .cls-1 {
        fill: #4f1316;
        stroke: #fff;
        stroke-linecap: round;
        stroke-linejoin: round;
        stroke-width: .99px;
      }
    </style>
  </defs>
  <g id="Layer_1-2" data-name="Layer 1">
    <path class="cls-1" d="M31.22,15.5v11.88c-.2,0-.39,0-.59.03-.11,0-.21.01-.31.03-.04,0-.08,0-.12.01-.08.01-.17.03-.25.04-.22.04-.43.08-.64.14-.21.05-.42.12-.62.19-.06.02-.12.04-.17.07-.13.05-.26.1-.38.16-.01,0-.02,0-.03.01-.13.06-.25.12-.38.19-.08.04-.17.09-.25.14-.08.04-.15.08-.22.13-.08.05-.16.1-.23.15-.16.11-.31.22-.46.34-.12.09-.23.19-.34.28s-.21.2-.32.3c-.1.11-.2.21-.3.32s-.19.22-.28.34c-.06.07-.12.15-.17.22-.08.11-.16.22-.23.34-.07.11-.15.23-.21.35-.05.08-.1.17-.14.25-.07.12-.13.25-.19.38,0,0-.01.02-.01.03-.06.12-.11.25-.16.38-.03.06-.05.11-.07.17-.07.2-.14.41-.19.62-.06.21-.1.42-.14.64-.01.08-.03.16-.04.25,0,.04-.01.08-.01.12-.02.1-.02.2-.03.31-.02.2-.03.39-.03.59v7.51H8v-7.51c0-.17,0-.35-.02-.53,0-.04,0-.08-.01-.13,0-.12-.02-.24-.04-.35,0-.07-.02-.13-.03-.21-.02-.13-.04-.27-.08-.4,0-.05-.02-.1-.03-.15-.03-.16-.08-.31-.12-.46-.07-.24-.16-.47-.25-.69-.05-.11-.1-.22-.15-.33h0c-.11-.22-.22-.43-.35-.64-.19-.31-.39-.61-.62-.88-.07-.09-.15-.19-.24-.28-.16-.17-.33-.35-.51-.51-.1-.08-.19-.16-.28-.24-.11-.09-.22-.19-.34-.26-.05-.04-.11-.08-.16-.12-.12-.09-.25-.17-.38-.25-.16-.1-.31-.19-.48-.26-.16-.08-.33-.16-.49-.23h0c-.9-.38-1.88-.59-2.92-.59v-11.88h7.86v-7.51c0-.13,0-.25.01-.38,0-.01,0-.02,0-.03,0-.1.01-.2.02-.29,0-.06,0-.12.02-.19,0-.04.01-.09.02-.13.01-.08.03-.17.04-.25.01-.08.03-.16.04-.24.04-.24.11-.48.18-.71.03-.08.05-.16.08-.24.03-.11.07-.21.12-.31.03-.08.06-.16.1-.24.03-.07.06-.15.1-.22.11-.22.22-.44.35-.65.12-.2.26-.4.4-.59.14-.19.3-.38.47-.56.08-.09.15-.17.24-.25.08-.08.17-.17.26-.25.08-.07.16-.14.24-.21h0s.03-.04.04-.04c.08-.07.17-.13.26-.2.19-.15.39-.28.6-.4.03-.02.07-.04.11-.06.07-.04.14-.08.21-.12.11-.06.21-.11.33-.17.11-.05.22-.1.33-.15.11-.04.22-.09.34-.13.6-.22,1.23-.37,1.88-.42h0s0,0,0,0c.23-.02.46-.03.69-.03.14,0,.28,0,.42.01.47.03.93.1,1.37.2.15.03.29.08.44.12.12.03.24.07.35.12.15.06.29.11.43.17.08.03.16.07.25.11.05.03.11.06.16.08.06.03.11.05.16.08.1.04.19.1.28.16,0,0,0,0,0,0h0s.02,0,.03.02c0,0,.01,0,.02.01.1.06.19.12.29.19.1.06.2.13.29.21.04.03.09.06.13.1.24.19.47.39.69.61.06.06.12.12.19.19.06.07.12.13.18.2.11.13.22.27.34.42.07.1.15.2.21.3.13.2.26.4.37.61.06.12.12.24.19.36.08.19.17.38.24.57.13.37.25.75.33,1.14.03.13.06.28.07.42,0,.02.01.05.01.07.01.08.02.16.03.24,0,.04.01.07.01.11.01.07.01.15.02.23,0,.04,0,.08,0,.11,0,0,0,0,0,.01,0,.03,0,.06,0,.09v.04c0,.06,0,.13,0,.19v7.5h7.86Z"/>
  </g>
</svg>