<?xml version="1.0" encoding="UTF-8"?>
<svg id="Layer_2" data-name="Layer 2" xmlns="http://www.w3.org/2000/svg" viewBox="0 0 31.73 42.89">
  <defs>
    <style>
      .cls-1 {
        fill: #57763c;
        stroke-width: .99px;
      }

      .cls-1, .cls-2 {
        stroke: #fff;
        stroke-linecap: round;
        stroke-linejoin: round;
      }

      .cls-2 {
        fill: #fff;
        stroke-width: .99px;
      }
    </style>
  </defs>
  <g id="Layer_2-2" data-name="Layer 2">
    <path class="cls-2" d="M31.23,15.49v11.89c-.51,0-1.01.05-1.49.14-.16.03-.32.07-.48.12-.21.05-.41.12-.61.19-.24.09-.46.18-.68.28-.33.17-.64.35-.94.54-.4.27-.77.58-1.11.93l-.25.25c-.16.18-.32.36-.46.56-.44.58-.78,1.22-1.04,1.91-.04.1-.07.2-.1.31-.06.2-.12.41-.17.63-.02.13-.05.26-.08.39-.01.11-.03.21-.04.31-.04.31-.06.62-.06.94v7.51h-15.72v-7.51c0-.26-.02-.51-.04-.77-.03-.25-.07-.5-.12-.74-.12-.62-.32-1.2-.59-1.74-.06-.13-.12-.26-.19-.38-.05-.09-.1-.18-.15-.26-.09-.15-.18-.29-.28-.42-.04-.06-.08-.12-.12-.17h0s-.07-.09-.1-.14c-.11-.14-.24-.29-.36-.43h-.01c-.05-.06-.11-.13-.18-.19-.02-.02-.03-.04-.06-.06-.51-.52-1.09-.95-1.73-1.3-.27-.14-.54-.27-.82-.38h-.01c-.85-.34-1.78-.52-2.75-.52v-11.89h7.87v-7.51c0-.12,0-.25.01-.38,0-.11.01-.22.02-.33,0-.07.02-.14.02-.21.01-.08.02-.15.04-.22.01-.1.02-.19.05-.29,0-.03,0-.05.01-.08.05-.24.11-.48.18-.71h0c.04-.12.07-.23.11-.33.03-.1.08-.2.12-.3.01-.02.01-.04.03-.06.05-.15.12-.29.19-.43.01-.03.03-.06.05-.09.08-.15.16-.3.25-.45.02-.04.05-.08.07-.12.08-.12.15-.23.23-.35.08-.11.17-.22.26-.33.09-.1.18-.21.27-.32.01-.01.02-.03.03-.04.08-.09.17-.17.25-.26.26-.25.53-.48.82-.7.09-.08.19-.15.29-.21.1-.07.19-.13.29-.19.11-.07.22-.13.33-.19.11-.06.21-.12.32-.17.11-.05.22-.1.34-.14.18-.08.37-.16.56-.22.74-.24,1.53-.37,2.36-.37.39,0,.77.02,1.14.08.12.02.25.04.37.07.12.03.24.05.36.08.12.03.24.06.36.1.04.01.08.02.12.04.15.05.3.1.44.16.15.06.29.12.43.19.23.11.46.23.67.36.11.06.21.13.31.2.07.05.14.1.22.16.04.02.09.06.14.1.07.05.14.11.21.17.19.15.37.31.54.48.08.08.16.17.24.26.17.18.32.37.46.56.07.08.12.16.17.24.06.07.12.16.17.24.09.14.17.28.25.43.03.06.05.11.08.16.08.15.15.31.22.46.05.13.1.25.15.38.04.11.08.23.12.35.04.12.08.26.1.39.03.09.05.19.08.3,0,0,0,.03.01.05.04.23.08.46.1.7v.03c.01.06.02.13.02.19,0,.05,0,.09,0,.14.01.13.01.26.01.39v7.54h7.87Z"/>
    <path class="cls-1" d="M7.25,28.02v3.61c-.06-.13-.12-.26-.19-.38-.05-.09-.1-.18-.15-.26-.09-.15-.18-.29-.28-.42-.04-.06-.08-.12-.12-.17h0s-.07-.09-.1-.14c-.11-.14-.24-.29-.36-.43h-.01c-.05-.06-.11-.13-.18-.19-.02-.02-.03-.04-.06-.06-.51-.52-1.09-.95-1.73-1.3-.27-.14-.54-.27-.82-.38h-.01c-.85-.34-1.78-.52-2.75-.52v-11.89h4.58c1.37,3.62,2.13,7.83,2.18,12.53Z"/>
  </g>
</svg>