<?xml version="1.0" encoding="UTF-8"?>
<svg id="Layer_2" data-name="Layer 2" xmlns="http://www.w3.org/2000/svg" viewBox="0 0 31.73 42.89">
  <defs>
    <style>
      .cls-1 {
        fill: #fff;
      }

      .cls-1, .cls-2, .cls-3 {
        stroke: #fff;
        stroke-linecap: round;
        stroke-linejoin: round;
        stroke-width: .99px;
      }

      .cls-2 {
        fill: #57763c;
      }

      .cls-3 {
        fill: #f3bc30;
      }
    </style>
  </defs>
  <g id="Layer_3" data-name="Layer 3">
    <g>
      <path class="cls-2" d="M23.72,42.39v-7.51c0-4.14,3.36-7.5,7.51-7.5-.71,0-1.41.03-2.1.08-9.54.75-15.75,6.62-18.72,14.93h13.31Z"/>
      <path class="cls-1" d="M.49,15.5v6.11c6.21-5.59,14.06-9.44,22.88-10.88v-2.74c0-4.14-3.36-7.5-7.51-7.5s-7.51,3.36-7.51,7.5v7.51H.49Z"/>
      <path class="cls-3" d="M.49,21.61v5.77c2.08,0,3.95.84,5.31,2.2,1.36,1.36,2.2,3.23,2.2,5.3v7.51s2.41,0,2.41,0c2.97-8.31,9.18-14.18,18.72-14.93.69-.05,1.39-.08,2.1-.08v-11.88s-7.86,0-7.86,0v-4.77C14.55,12.17,6.7,16.02.49,21.61Z"/>
    </g>
  </g>
</svg>