<?xml version="1.0" encoding="UTF-8"?>
<svg id="Layer_2" data-name="Layer 2" xmlns="http://www.w3.org/2000/svg" viewBox="0 0 31.72 42.89">
  <defs>
    <style>
      .cls-1 {
        fill: #4f1316;
        stroke: #fff;
        stroke-linecap: round;
        stroke-linejoin: round;
        stroke-width: .99px;
      }
    </style>
  </defs>
  <g id="Layer_1-2" data-name="Layer 1">
    <path class="cls-1" d="M31.22,15.5v11.88c-.13,0-.26,0-.39.01-.12,0-.25.02-.38.03l-.56.08-.91.22c-.12.03-.24.07-.35.12-.12.04-.23.09-.34.13s-.22.1-.33.15c-.11.05-.21.11-.32.16-.2.11-.38.22-.56.34-.04.02-.08.05-.12.08-.17.12-.35.25-.52.39-.1.08-.19.15-.28.24-.08.08-.17.16-.26.25-.34.34-.65.71-.92,1.11-.13.2-.26.4-.38.61-.04.08-.08.17-.13.25-.02.04-.04.08-.06.13-.03.06-.05.11-.07.17-.03.06-.05.11-.07.16-.03.08-.06.16-.09.24-.05.12-.09.23-.12.35-.04.13-.08.26-.12.4-.03.11-.06.22-.08.33,0,.04-.02.08-.02.13-.02.09-.03.18-.04.28-.02.12-.04.25-.05.38,0,.02,0,.03,0,.06-.01.11-.02.21-.02.32,0,.13-.01.26-.01.39v7.51H8v-7.51c0-4.14-3.36-7.5-7.5-7.5v-11.88h7.86v-7.51c0-.08,0-.16,0-.24,0-.03,0-.06,0-.09,0,0,0,0,0-.01,0-.01,0-.02,0-.04,0-.04,0-.08,0-.13,0-.05,0-.11.01-.16,0-.04.01-.08.01-.12.01-.08.02-.16.03-.24.01-.08.03-.16.04-.24,0-.03,0-.05.01-.08,0-.06.02-.11.03-.17.02-.1.04-.19.06-.29,0,0,0-.02,0-.02,0-.02.01-.03.02-.04,0-.02,0-.03.01-.05,0-.02,0-.03.01-.06,0-.02.01-.03.02-.04,0,0,0-.01,0-.01,0-.02,0-.03,0-.03,0-.02.01-.04.02-.06.02-.06.03-.11.05-.16.01-.01.01-.03.02-.04,0-.03.01-.05.02-.08,0-.03.02-.05.02-.08.01-.03.02-.06.03-.08.02-.03.02-.06.03-.08.03-.09.07-.17.11-.26.05-.11.1-.22.15-.33h0c.05-.11.11-.22.16-.33,0,0,0,0,0,0,.01-.02.02-.04.03-.06.11-.19.22-.37.34-.55h0c.07-.11.14-.2.21-.3.12-.15.24-.31.37-.46.07-.08.15-.17.24-.25,0,0,0,0,0,0,.03-.03.06-.07.1-.1.25-.25.53-.49.82-.71h0c.09-.07.18-.14.27-.2.09-.06.19-.12.28-.18.19-.11.38-.22.58-.32.07-.04.14-.07.21-.1.07-.04.15-.07.22-.11h0c.45-.19.92-.33,1.41-.43.12-.03.25-.05.37-.07.23-.04.47-.06.7-.07h.02c.14,0,.28-.01.42-.01.17,0,.34,0,.5.02h.04c.13.01.26.02.38.04.11.01.2.03.3.04.12.02.23.04.34.06.16.04.32.08.48.12.02.01.04.02.06.02.12.04.24.08.36.12.07.02.15.05.22.08.11.04.21.08.31.12.2.08.4.19.6.29.1.06.2.11.29.17.01,0,.02.01.03.02.02.01.04.03.07.04.02,0,.03.02.05.03.02,0,.03.02.04.03.01,0,.02,0,.02.01.03.02.07.04.1.06,0,0,0,0,0,0t.01.01s.02.01.02.02c.01,0,.02.01.03.02.07.05.14.1.21.15.02.01.03.02.05.04.09.07.17.13.26.21t.01,0c.09.07.18.15.26.23.11.1.21.19.3.29.15.15.28.29.41.45.07.08.14.16.2.25.06.07.11.15.16.22.2.27.38.56.53.86.05.1.1.19.15.29.1.2.18.39.25.6.03.08.06.15.08.23.01.04.03.08.03.12.03.08.06.17.08.26.03.09.05.18.07.27.04.17.07.34.1.51.03.17.05.34.06.51.01.07.02.13.02.19.01.16.02.31.02.47v7.53h7.86Z"/>
  </g>
</svg>