<?xml version="1.0" encoding="UTF-8"?>
<svg id="Layer_2" data-name="Layer 2" xmlns="http://www.w3.org/2000/svg" viewBox="0 0 31.72 42.89">
  <defs>
    <style>
      .cls-1 {
        fill: #f7d83e;
      }

      .cls-1, .cls-2 {
        stroke: #fff;
        stroke-linecap: round;
        stroke-linejoin: round;
        stroke-width: .99px;
      }

      .cls-2 {
        fill: #97aa57;
      }
    </style>
  </defs>
  <g id="Layer_3" data-name="Layer 3">
    <g>
      <path class="cls-2" d="M.49,27.23v.15c2.07,0,3.95.84,5.31,2.2,1.35,1.35,2.19,3.23,2.19,5.3v7.51s15.73,0,15.73,0v-7.51c0-4.14,3.36-7.5,7.5-7.5v-11.88s-7.86,0-7.86,0v-7.51c0-2.07-.84-3.94-2.2-5.3-1.35-1.36-3.23-2.2-5.3-2.2-4.15,0-7.51,3.36-7.51,7.5v17.54c-.22.05-2.06.27-2.48.37t-.01.01c-.1.02-.21.05-.32.07-.33.07-.67.15-1.02.24h-.01c-.15.03-.31.07-.47.11-.48.11-.97.23-1.46.35h-.01c-.33.08-.66.17-.99.25-.01,0-.01.01-.01.01-.36.09-.72.19-1.08.29Z"/>
      <path class="cls-1" d="M.49,15.5v11.73c.36-.1.72-.2,1.08-.29,0,0,0-.01.01-.01.33-.08.66-.17.99-.25h.01c.49-.12.98-.24,1.46-.35.16-.04.32-.08.47-.11h.01c.35-.09.69-.17,1.02-.24.11-.02.22-.05.32-.07t.01-.01c.42-.1,2.26-.32,2.48-.37v-10.03s-7.86,0-7.86,0Z"/>
    </g>
  </g>
</svg>