<?xml version="1.0" encoding="UTF-8"?>
<svg id="Layer_2" data-name="Layer 2" xmlns="http://www.w3.org/2000/svg" viewBox="0 0 31.28 42.9">
  <defs>
    <style>
      .cls-1 {
        fill: #97aa57;
        stroke: #fff;
        stroke-linecap: round;
        stroke-linejoin: round;
        stroke-width: .99px;
      }
    </style>
  </defs>
  <g id="Layer_1-2" data-name="Layer 1">
    <path class="cls-1" d="M30.79,27.41c-.24.01-.47.03-.7.07-.12.02-.25.04-.37.07-.24.04-.48.11-.71.18h0c-.24.07-.46.16-.69.25h0c-.07.03-.15.07-.22.11-.07.03-.15.06-.21.1-.07.03-.15.07-.21.11-.1.05-.21.12-.31.18-.02.01-.03.02-.05.03-.1.05-.19.11-.28.18-.09.06-.18.12-.27.19h0c-.2.15-.38.3-.56.46-.08.08-.17.16-.26.24h0s-.07.07-.1.11c0,0,0,0,0,0-.08.08-.16.17-.24.25-.13.15-.25.3-.37.46-.07.09-.14.19-.21.29h0c-.12.18-.24.37-.34.56-.01.02-.02.04-.03.06,0,0,0,0,0,0-.05.11-.11.21-.16.32h0s-.01.02-.02.03c-.04.08-.08.16-.11.25-.01.02-.02.04-.02.06-.04.09-.07.17-.11.26-.01.02-.02.05-.03.08-.01.02-.02.05-.03.08,0,.03-.02.05-.02.08-.01.03-.02.05-.02.08,0,.01,0,.03-.02.04-.02.05-.03.1-.05.16,0,.02-.01.04-.02.06,0,0,0,.02,0,.03,0,0,0,0,0,.01,0,0,0,.01-.01.02,0,0,0,.02,0,.03,0,.02,0,.04-.01.06,0,.02-.01.03-.01.05,0,.02-.01.03-.02.04,0,0,0,.02,0,.02-.02.1-.04.19-.06.29-.02.06-.03.11-.03.17,0,.03,0,.05-.01.08-.01.07-.03.15-.04.24-.01.08-.02.16-.03.24,0,.04,0,.08-.01.12,0,.04,0,.08,0,.12,0,.01,0,.02,0,.03,0,.04,0,.08,0,.13,0,.02,0,.03,0,.04,0,0,0,.01,0,.01,0,.01,0,.02,0,.03v.06c0,.08,0,.16,0,.24v7.51H8v-7.51c0-.11,0-.21,0-.31,0-.03,0-.04,0-.07v-.04c0-.08-.01-.15-.02-.24,0-.02,0-.04,0-.07s0-.04,0-.06v-.03s0-.02,0-.02c-.01-.17-.04-.34-.07-.51,0-.02,0-.04-.01-.07h0s-.02-.09-.03-.13c0-.02,0-.03-.01-.05,0-.01,0-.02,0-.03-.01-.07-.03-.13-.04-.19,0-.02,0-.03-.01-.04-.02-.07-.04-.15-.06-.22,0-.01,0-.02-.01-.03-.01-.03-.02-.07-.03-.11,0-.02-.01-.04-.02-.06h0c-.02-.1-.06-.19-.1-.29-.04-.11-.08-.22-.13-.33h0v-.02c-.03-.06-.06-.11-.08-.16-.02-.05-.04-.11-.07-.16-.05-.1-.1-.21-.16-.31h0s0-.01,0-.01c0-.01,0-.02-.01-.03,0,0,0-.01,0-.02,0,0,0,0-.01-.02-.03-.07-.07-.13-.12-.2-.01-.02-.02-.03-.03-.05,0-.02-.02-.03-.03-.05,0,0,0-.02-.01-.02-.04-.08-.1-.16-.15-.23h0c-.07-.11-.13-.2-.21-.3-.07-.1-.15-.19-.22-.28-.04-.07-.1-.13-.16-.19l-.02-.02s-.04-.04-.06-.06c-.08-.1-.16-.19-.25-.26-.08-.08-.17-.17-.26-.25h0c-.08-.08-.17-.16-.25-.22-.01,0-.02-.01-.02-.01-.09-.08-.19-.16-.28-.23-.1-.07-.2-.14-.3-.2-.04-.04-.1-.07-.15-.1-.05-.03-.1-.07-.15-.1,0,0-.01,0-.02-.01-.1-.06-.2-.12-.3-.17-.05-.03-.1-.06-.16-.08-.06-.03-.11-.05-.16-.08-.02-.01-.03-.02-.05-.03-.1-.05-.19-.09-.29-.13-.11-.04-.22-.09-.34-.13h0c-.11-.05-.23-.09-.34-.12-.02-.01-.04-.02-.06-.02-.1-.03-.2-.06-.3-.08-.12-.03-.24-.06-.36-.08-.12-.03-.24-.05-.37-.07h0c-.38-.06-.75-.09-1.14-.09v-11.88h7.86v-7.51c0-.31.02-.63.06-.94.01-.1.03-.2.04-.3.02-.13.05-.26.08-.4.05-.21.11-.42.17-.63.03-.1.06-.2.1-.3.25-.69.6-1.33,1.04-1.91.14-.2.3-.38.46-.56.08-.08.16-.17.25-.26.34-.34.71-.65,1.11-.92.3-.2.61-.38.94-.54.22-.1.44-.19.68-.28.2-.07.4-.14.61-.2.16-.04.31-.08.48-.11.48-.1.98-.15,1.49-.15,3.44,0,6.34,2.32,7.22,5.47v19.79l.21.05c.11.03.44.07,1.02.16.5.07,1.11.15,1.39.21l1.91.44c.46.11.93.22,1.39.34l.08.02c.3.07.61.15.92.23l.08.02c.24.06.47.12.71.19Z"/>
  </g>
</svg>