<?xml version="1.0" encoding="UTF-8"?>
<svg id="Layer_2" data-name="Layer 2" xmlns="http://www.w3.org/2000/svg" viewBox="0 0 31.72 42.89">
  <defs>
    <style>
      .cls-1 {
        fill: #ebb232;
      }

      .cls-1, .cls-2 {
        stroke: #fff;
        stroke-linecap: round;
        stroke-linejoin: round;
        stroke-width: .99px;
      }

      .cls-2 {
        fill: #fff;
      }
    </style>
  </defs>
  <g id="Layer_3" data-name="Layer 3">
    <g>
      <path class="cls-2" d="M31.22,15.5v11.88c-2.07,0-3.95.84-5.3,2.2-1.36,1.36-2.2,3.23-2.2,5.31v2.73c-2.54-.41-5.17-.63-7.86-.63s-5.32.22-7.87.63v-2.73c0-4.15-3.36-7.51-7.5-7.51v-11.88h7.86v-7.51c0-2.07.84-3.94,2.2-5.3,1.36-1.36,3.24-2.2,5.31-2.2,4.14,0,7.5,3.36,7.5,7.5v7.51h7.86Z"/>
      <path class="cls-1" d="M23.72,37.62v4.77H7.99v-4.77c2.55-.41,5.18-.63,7.87-.63s5.32.22,7.86.63Z"/>
    </g>
  </g>
</svg>