<?xml version="1.0" encoding="UTF-8"?>
<svg id="Layer_2" data-name="Layer 2" xmlns="http://www.w3.org/2000/svg" viewBox="0 0 31.73 42.89">
  <defs>
    <style>
      .cls-1 {
        fill: #fff;
      }

      .cls-1, .cls-2 {
        stroke: #fff;
        stroke-linecap: round;
        stroke-linejoin: round;
        stroke-width: .99px;
      }

      .cls-2 {
        fill: #f3bc30;
      }
    </style>
  </defs>
  <g id="Layer_3" data-name="Layer 3">
    <g>
      <path class="cls-2" d="M8,42.39v-7.5c0-4.15-3.36-7.51-7.51-7.51v-5.78c6.08,5.46,10.59,12.59,12.95,20.79h-5.44Z"/>
      <path class="cls-1" d="M31.23,15.5v11.88c-2.08,0-3.95.84-5.31,2.2s-2.2,3.23-2.2,5.31v7.5h-10.28c-2.36-8.2-6.87-15.33-12.95-20.79v-6.1h7.86v-7.51c0-2.07.84-3.94,2.2-5.3,1.36-1.36,3.24-2.2,5.31-2.2,4.15,0,7.51,3.36,7.51,7.5v7.51h7.86Z"/>
    </g>
  </g>
</svg>